<svg width="24" height="18" viewBox="0 0 24 18" xmlns="http://www.w3.org/2000/svg">
  <rect width="24" height="18" fill="#B22234"/>
  <rect width="24" height="1.38" y="1.38" fill="white"/>
  <rect width="24" height="1.38" y="4.15" fill="white"/>
  <rect width="24" height="1.38" y="6.92" fill="white"/>
  <rect width="24" height="1.38" y="9.69" fill="white"/>
  <rect width="24" height="1.38" y="12.46" fill="white"/>
  <rect width="24" height="1.38" y="15.23" fill="white"/>
  <rect width="10" height="9.69" fill="#3C3B6E"/>
  <g fill="white">
    <circle cx="1.5" cy="1.5" r="0.5"/>
    <circle cx="3.5" cy="1.5" r="0.5"/>
    <circle cx="5.5" cy="1.5" r="0.5"/>
    <circle cx="7.5" cy="1.5" r="0.5"/>
    <circle cx="2.5" cy="3" r="0.5"/>
    <circle cx="4.5" cy="3" r="0.5"/>
    <circle cx="6.5" cy="3" r="0.5"/>
    <circle cx="8.5" cy="3" r="0.5"/>
    <circle cx="1.5" cy="4.5" r="0.5"/>
    <circle cx="3.5" cy="4.5" r="0.5"/>
    <circle cx="5.5" cy="4.5" r="0.5"/>
    <circle cx="7.5" cy="4.5" r="0.5"/>
    <circle cx="2.5" cy="6" r="0.5"/>
    <circle cx="4.5" cy="6" r="0.5"/>
    <circle cx="6.5" cy="6" r="0.5"/>
    <circle cx="8.5" cy="6" r="0.5"/>
    <circle cx="1.5" cy="7.5" r="0.5"/>
    <circle cx="3.5" cy="7.5" r="0.5"/>
    <circle cx="5.5" cy="7.5" r="0.5"/>
    <circle cx="7.5" cy="7.5" r="0.5"/>
  </g>
</svg>